%FSLAX46Y46*%
%MOMM*%
%ADD10C,0.5*%
D10*
X1000000Y1000000D03*
X2000000Y1000000D03*
X3000000Y1000000D03*
X4000000Y1000000D03*
X5000000Y1000000D03*
X6000000Y1000000D03*
X7000000Y1000000D03*
X8000000Y1000000D03*
X9000000Y1000000D03*
X10000000Y1000000D03*
X1000000Y2000000D03*
X2000000Y2000000D03*
X3000000Y2000000D03*
X4000000Y2000000D03*
X5000000Y2000000D03*
X6000000Y2000000D03*
X7000000Y2000000D03*
X8000000Y2000000D03*
X9000000Y2000000D03*
X10000000Y2000000D03*
X1000000Y3000000D03*
X2000000Y3000000D03*
X3000000Y3000000D03*
X4000000Y3000000D03*
X5000000Y3000000D03*
X6000000Y3000000D03*
X7000000Y3000000D03*
X8000000Y3000000D03*
X9000000Y3000000D03*
X10000000Y3000000D03*
X1000000Y4000000D03*
X2000000Y4000000D03*
X3000000Y4000000D03*
X4000000Y4000000D03*
X5000000Y4000000D03*
X6000000Y4000000D03*
X7000000Y4000000D03*
X8000000Y4000000D03*
X9000000Y4000000D03*
X10000000Y4000000D03*
X1000000Y5000000D03*
X2000000Y5000000D03*
X3000000Y5000000D03*
X4000000Y5000000D03*
X5000000Y5000000D03*
X6000000Y5000000D03*
X7000000Y5000000D03*
X8000000Y5000000D03*
X9000000Y5000000D03*
X10000000Y5000000D03*
X1000000Y6000000D03*
X2000000Y6000000D03*
X3000000Y6000000D03*
X4000000Y6000000D03*
X5000000Y6000000D03*
X6000000Y6000000D03*
X7000000Y6000000D03*
X8000000Y6000000D03*
X9000000Y6000000D03*
X10000000Y6000000D03*
X1000000Y7000000D03*
X2000000Y7000000D03*
X3000000Y7000000D03*
X4000000Y7000000D03*
X5000000Y7000000D03*
X6000000Y7000000D03*
X7000000Y7000000D03*
X8000000Y7000000D03*
X9000000Y7000000D03*
X10000000Y7000000D03*
X1000000Y8000000D03*
X2000000Y8000000D03*
X3000000Y8000000D03*
X4000000Y8000000D03*
X5000000Y8000000D03*
X6000000Y8000000D03*
X7000000Y8000000D03*
X8000000Y8000000D03*
X9000000Y8000000D03*
X10000000Y8000000D03*
X1000000Y9000000D03*
X2000000Y9000000D03*
X3000000Y9000000D03*
X4000000Y9000000D03*
X5000000Y9000000D03*
X6000000Y9000000D03*
X7000000Y9000000D03*
X8000000Y9000000D03*
X9000000Y9000000D03*
X10000000Y9000000D03*
X1000000Y10000000D03*
X2000000Y10000000D03*
X3000000Y10000000D03*
X4000000Y10000000D03*
X5000000Y10000000D03*
X6000000Y10000000D03*
X7000000Y10000000D03*
X8000000Y10000000D03*
X9000000Y10000000D03*
X10000000Y10000000D03*
X1000000000Y1000000000D03*
X1000000000Y1000000000D03*
X1000000000Y1000000000D03*
X1000000000Y1000000000D03*
X1000000000Y1000000000D03*
X1000000000Y1000000000D03*
X1000000000Y1000000000D03*
X1000000000Y1000000000D03*
X1000000000Y1000000000D03*
X1000000000Y1000000000D03*
X1000000000Y1000000000D03*
X1000000000Y1000000000D03*
X1000000000Y1000000000D03*
X1000000000Y1000000000D03*
X1000000000Y1000000000D03*
X1000000000Y1000000000D03*
X1000000000Y1000000000D03*
X1000000000Y1000000000D03*
X1000000000Y1000000000D03*
X1000000000Y1000000000D03*
X1000000000Y1000000000D03*
X1000000000Y1000000000D03*
X1000000000Y1000000000D03*
X1000000000Y1000000000D03*
X1000000000Y1000000000D03*
X1000000000Y1000000000D03*
X1000000000Y1000000000D03*
X1000000000Y1000000000D03*
X1000000000Y1000000000D03*
X1000000000Y1000000000D03*
X1000000000Y1000000000D03*
X1000000000Y1000000000D03*
X1000000000Y1000000000D03*
X1000000000Y1000000000D03*
X1000000000Y1000000000D03*
X1000000000Y1000000000D03*
X1000000000Y1000000000D03*
X1000000000Y1000000000D03*
X1000000000Y1000000000D03*
X1000000000Y1000000000D03*
X1000000000Y1000000000D03*
X1000000000Y1000000000D03*
X1000000000Y1000000000D03*
X1000000000Y1000000000D03*
X1000000000Y1000000000D03*
X1000000000Y1000000000D03*
X1000000000Y1000000000D03*
X1000000000Y1000000000D03*
X1000000000Y1000000000D03*
X1000000000Y1000000000D03*
X1000000000Y1000000000D03*
X1000000000Y1000000000D03*
X1000000000Y1000000000D03*
X1000000000Y1000000000D03*
X1000000000Y1000000000D03*
X1000000000Y1000000000D03*
X1000000000Y1000000000D03*
X1000000000Y1000000000D03*
X1000000000Y1000000000D03*
X1000000000Y1000000000D03*
X1000000000Y1000000000D03*
X1000000000Y1000000000D03*
X1000000000Y1000000000D03*
X1000000000Y1000000000D03*
X1000000000Y1000000000D03*
X1000000000Y1000000000D03*
X1000000000Y1000000000D03*
X1000000000Y1000000000D03*
X1000000000Y1000000000D03*
X1000000000Y1000000000D03*
X1000000000Y1000000000D03*
X1000000000Y1000000000D03*
X1000000000Y1000000000D03*
X1000000000Y1000000000D03*
X1000000000Y1000000000D03*
X1000000000Y1000000000D03*
X1000000000Y1000000000D03*
X1000000000Y1000000000D03*
X1000000000Y1000000000D03*
X1000000000Y1000000000D03*
X1000000000Y1000000000D03*
X1000000000Y1000000000D03*
X1000000000Y1000000000D03*
X1000000000Y1000000000D03*
X1000000000Y1000000000D03*
X1000000000Y1000000000D03*
X1000000000Y1000000000D03*
X1000000000Y1000000000D03*
X1000000000Y1000000000D03*
X1000000000Y1000000000D03*
X1000000000Y1000000000D03*
X1000000000Y1000000000D03*
X1000000000Y1000000000D03*
X1000000000Y1000000000D03*
X1000000000Y1000000000D03*
X1000000000Y1000000000D03*
X1000000000Y1000000000D03*
X1000000000Y1000000000D03*
X1000000000Y1000000000D03*
X1000000000Y1000000000D03*
X1000000000Y1000000000D03*
X1000000000Y1000000000D03*
X1000000000Y1000000000D03*
X1000000000Y1000000000D03*
X1000000000Y1000000000D03*
X1000000000Y1000000000D03*
X1000000000Y1000000000D03*
X1000000000Y1000000000D03*
X1000000000Y1000000000D03*
X1000000000Y1000000000D03*
X1000000000Y1000000000D03*
X1000000000Y1000000000D03*
X1000000000Y1000000000D03*
X1000000000Y1000000000D03*
X1000000000Y1000000000D03*
X1000000000Y1000000000D03*
X1000000000Y1000000000D03*
X1000000000Y1000000000D03*
X1000000000Y1000000000D03*
X1000000000Y1000000000D03*
X1000000000Y1000000000D03*
X1000000000Y1000000000D03*
X1000000000Y1000000000D03*
X1000000000Y1000000000D03*
X1000000000Y1000000000D03*
X1000000000Y1000000000D03*
X1000000000Y1000000000D03*
X1000000000Y1000000000D03*
X1000000000Y1000000000D03*
X1000000000Y1000000000D03*
X1000000000Y1000000000D03*
X1000000000Y1000000000D03*
X1000000000Y1000000000D03*
X1000000000Y1000000000D03*
X1000000000Y1000000000D03*
X1000000000Y1000000000D03*
X1000000000Y1000000000D03*
X1000000000Y1000000000D03*
X1000000000Y1000000000D03*
X1000000000Y1000000000D03*
X1000000000Y1000000000D03*
X1000000000Y1000000000D03*
X1000000000Y1000000000D03*
X1000000000Y1000000000D03*
X1000000000Y1000000000D03*
X1000000000Y1000000000D03*
X1000000000Y1000000000D03*
X1000000000Y1000000000D03*
X1000000000Y1000000000D03*
X1000000000Y1000000000D03*
X1000000000Y1000000000D03*
X1000000000Y1000000000D03*
X1000000000Y1000000000D03*
X1000000000Y1000000000D03*
X1000000000Y1000000000D03*
X1000000000Y1000000000D03*
X1000000000Y1000000000D03*
X1000000000Y1000000000D03*
X1000000000Y1000000000D03*
X1000000000Y1000000000D03*
X1000000000Y1000000000D03*
X1000000000Y1000000000D03*
X1000000000Y1000000000D03*
X1000000000Y1000000000D03*
X1000000000Y1000000000D03*
X1000000000Y1000000000D03*
X1000000000Y1000000000D03*
X1000000000Y1000000000D03*
X1000000000Y1000000000D03*
X1000000000Y1000000000D03*
X1000000000Y1000000000D03*
X1000000000Y1000000000D03*
X1000000000Y1000000000D03*
X1000000000Y1000000000D03*
X1000000000Y1000000000D03*
X1000000000Y1000000000D03*
X1000000000Y1000000000D03*
X1000000000Y1000000000D03*
X1000000000Y1000000000D03*
X1000000000Y1000000000D03*
X1000000000Y1000000000D03*
X1000000000Y1000000000D03*
X1000000000Y1000000000D03*
X1000000000Y1000000000D03*
X1000000000Y1000000000D03*
X1000000000Y1000000000D03*
X1000000000Y1000000000D03*
X1000000000Y1000000000D03*
X1000000000Y1000000000D03*
X1000000000Y1000000000D03*
X1000000000Y1000000000D03*
X1000000000Y1000000000D03*
X1000000000Y1000000000D03*
X1000000000Y1000000000D03*
X1000000000Y1000000000D03*
X1000000000Y1000000000D03*
X1000000000Y1000000000D03*
X1000000000Y1000000000D03*
X1000000000Y1000000000D03*
X1000000000Y1000000000D03*
X1000000000Y1000000000D03*
X1000000000Y1000000000D03*
X1000000000Y1000000000D03*
X1000000000Y1000000000D03*
X1000000000Y1000000000D03*
X1000000000Y1000000000D03*
X1000000000Y1000000000D03*
X1000000000Y1000000000D03*
X1000000000Y1000000000D03*
X1000000000Y1000000000D03*
X1000000000Y1000000000D03*
X1000000000Y1000000000D03*
X1000000000Y1000000000D03*
X1000000000Y1000000000D03*
X1000000000Y1000000000D03*
X1000000000Y1000000000D03*
X1000000000Y1000000000D03*
X1000000000Y1000000000D03*
X1000000000Y1000000000D03*
X1000000000Y1000000000D03*
X1000000000Y1000000000D03*
X1000000000Y1000000000D03*
X1000000000Y1000000000D03*
X1000000000Y1000000000D03*
X1000000000Y1000000000D03*
X1000000000Y1000000000D03*
X1000000000Y1000000000D03*
X1000000000Y1000000000D03*
X1000000000Y1000000000D03*
X1000000000Y1000000000D03*
X1000000000Y1000000000D03*
X1000000000Y1000000000D03*
X1000000000Y1000000000D03*
X1000000000Y1000000000D03*
X1000000000Y1000000000D03*
X1000000000Y1000000000D03*
X1000000000Y1000000000D03*
X1000000000Y1000000000D03*
X1000000000Y1000000000D03*
X1000000000Y1000000000D03*
X1000000000Y1000000000D03*
X1000000000Y1000000000D03*
X1000000000Y1000000000D03*
X1000000000Y1000000000D03*
X1000000000Y1000000000D03*
X1000000000Y1000000000D03*
X1000000000Y1000000000D03*
X1000000000Y1000000000D03*
X1000000000Y1000000000D03*
X1000000000Y1000000000D03*
X1000000000Y1000000000D03*
X1000000000Y1000000000D03*
X1000000000Y1000000000D03*
X1000000000Y1000000000D03*
X1000000000Y1000000000D03*
X1000000000Y1000000000D03*
X1000000000Y1000000000D03*
X1000000000Y1000000000D03*
X1000000000Y1000000000D03*
X1000000000Y1000000000D03*
X1000000000Y1000000000D03*
X1000000000Y1000000000D03*
X1000000000Y1000000000D03*
X1000000000Y1000000000D03*
X1000000000Y1000000000D03*
X1000000000Y1000000000D03*
X1000000000Y1000000000D03*
X1000000000Y1000000000D03*
X1000000000Y1000000000D03*
X1000000000Y1000000000D03*
X1000000000Y1000000000D03*
X1000000000Y1000000000D03*
X1000000000Y1000000000D03*
X1000000000Y1000000000D03*
X1000000000Y1000000000D03*
X1000000000Y1000000000D03*
X1000000000Y1000000000D03*
X1000000000Y1000000000D03*
X1000000000Y1000000000D03*
X1000000000Y1000000000D03*
X1000000000Y1000000000D03*
X1000000000Y1000000000D03*
X1000000000Y1000000000D03*
X1000000000Y1000000000D03*
X1000000000Y1000000000D03*
X1000000000Y1000000000D03*
X1000000000Y1000000000D03*
X1000000000Y1000000000D03*
X1000000000Y1000000000D03*
X1000000000Y1000000000D03*
X1000000000Y1000000000D03*
X1000000000Y1000000000D03*
X1000000000Y1000000000D03*
X1000000000Y1000000000D03*
X1000000000Y1000000000D03*
X1000000000Y1000000000D03*
X1000000000Y1000000000D03*
X1000000000Y1000000000D03*
X1000000000Y1000000000D03*
X1000000000Y1000000000D03*
X1000000000Y1000000000D03*
X1000000000Y1000000000D03*
X1000000000Y1000000000D03*
X1000000000Y1000000000D03*
X1000000000Y1000000000D03*
X1000000000Y1000000000D03*
X1000000000Y1000000000D03*
X1000000000Y1000000000D03*
X1000000000Y1000000000D03*
X1000000000Y1000000000D03*
X1000000000Y1000000000D03*
X1000000000Y1000000000D03*
X1000000000Y1000000000D03*
X1000000000Y1000000000D03*
X1000000000Y1000000000D03*
X1000000000Y1000000000D03*
X1000000000Y1000000000D03*
X1000000000Y1000000000D03*
X1000000000Y1000000000D03*
X1000000000Y1000000000D03*
X1000000000Y1000000000D03*
X1000000000Y1000000000D03*
X1000000000Y1000000000D03*
X1000000000Y1000000000D03*
X1000000000Y1000000000D03*
X1000000000Y1000000000D03*
X1000000000Y1000000000D03*
X1000000000Y1000000000D03*
X1000000000Y1000000000D03*
X1000000000Y1000000000D03*
X1000000000Y1000000000D03*
X1000000000Y1000000000D03*
X1000000000Y1000000000D03*
X1000000000Y1000000000D03*
X1000000000Y1000000000D03*
X1000000000Y1000000000D03*
X1000000000Y1000000000D03*
X1000000000Y1000000000D03*
X1000000000Y1000000000D03*
X1000000000Y1000000000D03*
X1000000000Y1000000000D03*
X1000000000Y1000000000D03*
X1000000000Y1000000000D03*
X1000000000Y1000000000D03*
X1000000000Y1000000000D03*
X1000000000Y1000000000D03*
X1000000000Y1000000000D03*
X1000000000Y1000000000D03*
X1000000000Y1000000000D03*
X1000000000Y1000000000D03*
X1000000000Y1000000000D03*
X1000000000Y1000000000D03*
X1000000000Y1000000000D03*
X1000000000Y1000000000D03*
X1000000000Y1000000000D03*
X1000000000Y1000000000D03*
X1000000000Y1000000000D03*
X1000000000Y1000000000D03*
X1000000000Y1000000000D03*
X1000000000Y1000000000D03*
X1000000000Y1000000000D03*
X1000000000Y1000000000D03*
X1000000000Y1000000000D03*
X1000000000Y1000000000D03*
X1000000000Y1000000000D03*
X1000000000Y1000000000D03*
X1000000000Y1000000000D03*
X1000000000Y1000000000D03*
X1000000000Y1000000000D03*
X1000000000Y1000000000D03*
X1000000000Y1000000000D03*
X1000000000Y1000000000D03*
X1000000000Y1000000000D03*
X1000000000Y1000000000D03*
X1000000000Y1000000000D03*
X1000000000Y1000000000D03*
X1000000000Y1000000000D03*
X1000000000Y1000000000D03*
X1000000000Y1000000000D03*
X1000000000Y1000000000D03*
X1000000000Y1000000000D03*
X1000000000Y1000000000D03*
X1000000000Y1000000000D03*
X1000000000Y1000000000D03*
X1000000000Y1000000000D03*
X1000000000Y1000000000D03*
X1000000000Y1000000000D03*
X1000000000Y1000000000D03*
X1000000000Y1000000000D03*
X1000000000Y1000000000D03*
X1000000000Y1000000000D03*
X1000000000Y1000000000D03*
X1000000000Y1000000000D03*
X1000000000Y1000000000D03*
X1000000000Y1000000000D03*
X1000000000Y1000000000D03*
X1000000000Y1000000000D03*
X1000000000Y1000000000D03*
X1000000000Y1000000000D03*
X1000000000Y1000000000D03*
X1000000000Y1000000000D03*
X1000000000Y1000000000D03*
X1000000000Y1000000000D03*
X1000000000Y1000000000D03*
X1000000000Y1000000000D03*
X1000000000Y1000000000D03*
X1000000000Y1000000000D03*
X1000000000Y1000000000D03*
X1000000000Y1000000000D03*
X1000000000Y1000000000D03*
X1000000000Y1000000000D03*
X1000000000Y1000000000D03*
X1000000000Y1000000000D03*
X1000000000Y1000000000D03*
X1000000000Y1000000000D03*
X1000000000Y1000000000D03*
X1000000000Y1000000000D03*
X1000000000Y1000000000D03*
X1000000000Y1000000000D03*
X1000000000Y1000000000D03*
X1000000000Y1000000000D03*
X1000000000Y1000000000D03*
X1000000000Y1000000000D03*
X1000000000Y1000000000D03*
X1000000000Y1000000000D03*
X1000000000Y1000000000D03*
X1000000000Y1000000000D03*
X1000000000Y1000000000D03*
X1000000000Y1000000000D03*
X1000000000Y1000000000D03*
X1000000000Y1000000000D03*
X1000000000Y1000000000D03*
X1000000000Y1000000000D03*
X1000000000Y1000000000D03*
X1000000000Y1000000000D03*
X1000000000Y1000000000D03*
X1000000000Y1000000000D03*
X1000000000Y1000000000D03*
X1000000000Y1000000000D03*
X1000000000Y1000000000D03*
X1000000000Y1000000000D03*
X1000000000Y1000000000D03*
X1000000000Y1000000000D03*
X1000000000Y1000000000D03*
X1000000000Y1000000000D03*
X1000000000Y1000000000D03*
X1000000000Y1000000000D03*
X1000000000Y1000000000D03*
X1000000000Y1000000000D03*
X1000000000Y1000000000D03*
X1000000000Y1000000000D03*
X1000000000Y1000000000D03*
X1000000000Y1000000000D03*
X1000000000Y1000000000D03*
X1000000000Y1000000000D03*
X1000000000Y1000000000D03*
X1000000000Y1000000000D03*
X1000000000Y1000000000D03*
X1000000000Y1000000000D03*
X1000000000Y1000000000D03*
X1000000000Y1000000000D03*
X1000000000Y1000000000D03*
X1000000000Y1000000000D03*
X1000000000Y1000000000D03*
X1000000000Y1000000000D03*
X1000000000Y1000000000D03*
X1000000000Y1000000000D03*
X1000000000Y1000000000D03*
X1000000000Y1000000000D03*
X1000000000Y1000000000D03*
X1000000000Y1000000000D03*
X1000000000Y1000000000D03*
X1000000000Y1000000000D03*
X1000000000Y1000000000D03*
X1000000000Y1000000000D03*
X1000000000Y1000000000D03*
X1000000000Y1000000000D03*
X1000000000Y1000000000D03*
X1000000000Y1000000000D03*
X1000000000Y1000000000D03*
X1000000000Y1000000000D03*
X1000000000Y1000000000D03*
X1000000000Y1000000000D03*
X1000000000Y1000000000D03*
X1000000000Y1000000000D03*
X1000000000Y1000000000D03*
X1000000000Y1000000000D03*
X1000000000Y1000000000D03*
X1000000000Y1000000000D03*
X1000000000Y1000000000D03*
X1000000000Y1000000000D03*
X1000000000Y1000000000D03*
X1000000000Y1000000000D03*
X1000000000Y1000000000D03*
X1000000000Y1000000000D03*
X1000000000Y1000000000D03*
X1000000000Y1000000000D03*
X1000000000Y1000000000D03*
X1000000000Y1000000000D03*
X1000000000Y1000000000D03*
X1000000000Y1000000000D03*
X1000000000Y1000000000D03*
X1000000000Y1000000000D03*
X1000000000Y1000000000D03*
X1000000000Y1000000000D03*
X1000000000Y1000000000D03*
X1000000000Y1000000000D03*
X1000000000Y1000000000D03*
X1000000000Y1000000000D03*
X1000000000Y1000000000D03*
X1000000000Y1000000000D03*
X1000000000Y1000000000D03*
X1000000000Y1000000000D03*
X1000000000Y1000000000D03*
X1000000000Y1000000000D03*
X1000000000Y1000000000D03*
X1000000000Y1000000000D03*
X1000000000Y1000000000D03*
X1000000000Y1000000000D03*
X1000000000Y1000000000D03*
X1000000000Y1000000000D03*
X1000000000Y1000000000D03*
X1000000000Y1000000000D03*
X1000000000Y1000000000D03*
X1000000000Y1000000000D03*
X1000000000Y1000000000D03*
X1000000000Y1000000000D03*
X1000000000Y1000000000D03*
X1000000000Y1000000000D03*
X1000000000Y1000000000D03*
X1000000000Y1000000000D03*
X1000000000Y1000000000D03*
X1000000000Y1000000000D03*
X1000000000Y1000000000D03*
X1000000000Y1000000000D03*
X1000000000Y1000000000D03*
X1000000000Y1000000000D03*
X1000000000Y1000000000D03*
X1000000000Y1000000000D03*
X1000000000Y1000000000D03*
X1000000000Y1000000000D03*
X1000000000Y1000000000D03*
X1000000000Y1000000000D03*
X1000000000Y1000000000D03*
X1000000000Y1000000000D03*
X1000000000Y1000000000D03*
X1000000000Y1000000000D03*
X1000000000Y1000000000D03*
X1000000000Y1000000000D03*
X1000000000Y1000000000D03*
X1000000000Y1000000000D03*
X1000000000Y1000000000D03*
X1000000000Y1000000000D03*
X1000000000Y1000000000D03*
X1000000000Y1000000000D03*
X1000000000Y1000000000D03*
X1000000000Y1000000000D03*
X1000000000Y1000000000D03*
X1000000000Y1000000000D03*
X1000000000Y1000000000D03*
X1000000000Y1000000000D03*
X1000000000Y1000000000D03*
X1000000000Y1000000000D03*
X1000000000Y1000000000D03*
X1000000000Y1000000000D03*
X1000000000Y1000000000D03*
X1000000000Y1000000000D03*
X1000000000Y1000000000D03*
X1000000000Y1000000000D03*
X1000000000Y1000000000D03*
X1000000000Y1000000000D03*
X1000000000Y1000000000D03*
X1000000000Y1000000000D03*
X1000000000Y1000000000D03*
X1000000000Y1000000000D03*
X1000000000Y1000000000D03*
X1000000000Y1000000000D03*
X1000000000Y1000000000D03*
X1000000000Y1000000000D03*
X1000000000Y1000000000D03*
X1000000000Y1000000000D03*
X1000000000Y1000000000D03*
X1000000000Y1000000000D03*
X1000000000Y1000000000D03*
X1000000000Y1000000000D03*
X1000000000Y1000000000D03*
X1000000000Y1000000000D03*
X1000000000Y1000000000D03*
X1000000000Y1000000000D03*
X1000000000Y1000000000D03*
X1000000000Y1000000000D03*
X1000000000Y1000000000D03*
X1000000000Y1000000000D03*
X1000000000Y1000000000D03*
X1000000000Y1000000000D03*
X1000000000Y1000000000D03*
X1000000000Y1000000000D03*
X1000000000Y1000000000D03*
X1000000000Y1000000000D03*
X1000000000Y1000000000D03*
X1000000000Y1000000000D03*
X1000000000Y1000000000D03*
X1000000000Y1000000000D03*
X1000000000Y1000000000D03*
X1000000000Y1000000000D03*
X1000000000Y1000000000D03*
X1000000000Y1000000000D03*
X1000000000Y1000000000D03*
X1000000000Y1000000000D03*
X1000000000Y1000000000D03*
X1000000000Y1000000000D03*
X1000000000Y1000000000D03*
X1000000000Y1000000000D03*
X1000000000Y1000000000D03*
X1000000000Y1000000000D03*
X1000000000Y1000000000D03*
X1000000000Y1000000000D03*
X1000000000Y1000000000D03*
X1000000000Y1000000000D03*
X1000000000Y1000000000D03*
X1000000000Y1000000000D03*
X1000000000Y1000000000D03*
X1000000000Y1000000000D03*
X1000000000Y1000000000D03*
X1000000000Y1000000000D03*
X1000000000Y1000000000D03*
X1000000000Y1000000000D03*
X1000000000Y1000000000D03*
X1000000000Y1000000000D03*
X1000000000Y1000000000D03*
X1000000000Y1000000000D03*
X1000000000Y1000000000D03*
X1000000000Y1000000000D03*
X1000000000Y1000000000D03*
X1000000000Y1000000000D03*
X1000000000Y1000000000D03*
X1000000000Y1000000000D03*
X1000000000Y1000000000D03*
X1000000000Y1000000000D03*
X1000000000Y1000000000D03*
X1000000000Y1000000000D03*
X1000000000Y1000000000D03*
X1000000000Y1000000000D03*
X1000000000Y1000000000D03*
X1000000000Y1000000000D03*
X1000000000Y1000000000D03*
X1000000000Y1000000000D03*
X1000000000Y1000000000D03*
X1000000000Y1000000000D03*
X1000000000Y1000000000D03*
X1000000000Y1000000000D03*
X1000000000Y1000000000D03*
X1000000000Y1000000000D03*
X1000000000Y1000000000D03*
X1000000000Y1000000000D03*
X1000000000Y1000000000D03*
X1000000000Y1000000000D03*
X1000000000Y1000000000D03*
X1000000000Y1000000000D03*
X1000000000Y1000000000D03*
X1000000000Y1000000000D03*
X1000000000Y1000000000D03*
X1000000000Y1000000000D03*
X1000000000Y1000000000D03*
X1000000000Y1000000000D03*
X1000000000Y1000000000D03*
X1000000000Y1000000000D03*
X1000000000Y1000000000D03*
X1000000000Y1000000000D03*
X1000000000Y1000000000D03*
X1000000000Y1000000000D03*
X1000000000Y1000000000D03*
X1000000000Y1000000000D03*
X1000000000Y1000000000D03*
X1000000000Y1000000000D03*
X1000000000Y1000000000D03*
X1000000000Y1000000000D03*
X1000000000Y1000000000D03*
X1000000000Y1000000000D03*
X1000000000Y1000000000D03*
X1000000000Y1000000000D03*
X1000000000Y1000000000D03*
X1000000000Y1000000000D03*
X1000000000Y1000000000D03*
X1000000000Y1000000000D03*
X1000000000Y1000000000D03*
X1000000000Y1000000000D03*
X1000000000Y1000000000D03*
X1000000000Y1000000000D03*
X1000000000Y1000000000D03*
X1000000000Y1000000000D03*
X1000000000Y1000000000D03*
X1000000000Y1000000000D03*
X1000000000Y1000000000D03*
X1000000000Y1000000000D03*
X1000000000Y1000000000D03*
X1000000000Y1000000000D03*
X1000000000Y1000000000D03*
X1000000000Y1000000000D03*
X1000000000Y1000000000D03*
X1000000000Y1000000000D03*
X1000000000Y1000000000D03*
X1000000000Y1000000000D03*
X1000000000Y1000000000D03*
X1000000000Y1000000000D03*
X1000000000Y1000000000D03*
X1000000000Y1000000000D03*
X1000000000Y1000000000D03*
X1000000000Y1000000000D03*
X1000000000Y1000000000D03*
X1000000000Y1000000000D03*
X1000000000Y1000000000D03*
X1000000000Y1000000000D03*
X1000000000Y1000000000D03*
X1000000000Y1000000000D03*
X1000000000Y1000000000D03*
X1000000000Y1000000000D03*
X1000000000Y1000000000D03*
X1000000000Y1000000000D03*
X1000000000Y1000000000D03*
X1000000000Y1000000000D03*
X1000000000Y1000000000D03*
X1000000000Y1000000000D03*
X1000000000Y1000000000D03*
X1000000000Y1000000000D03*
X1000000000Y1000000000D03*
X1000000000Y1000000000D03*
X1000000000Y1000000000D03*
X1000000000Y1000000000D03*
X1000000000Y1000000000D03*
X1000000000Y1000000000D03*
X1000000000Y1000000000D03*
X1000000000Y1000000000D03*
X1000000000Y1000000000D03*
X1000000000Y1000000000D03*
X1000000000Y1000000000D03*
X1000000000Y1000000000D03*
X1000000000Y1000000000D03*
X1000000000Y1000000000D03*
X1000000000Y1000000000D03*
X1000000000Y1000000000D03*
X1000000000Y1000000000D03*
X1000000000Y1000000000D03*
X1000000000Y1000000000D03*
X1000000000Y1000000000D03*
X1000000000Y1000000000D03*
X1000000000Y1000000000D03*
X1000000000Y1000000000D03*
X1000000000Y1000000000D03*
X1000000000Y1000000000D03*
X1000000000Y1000000000D03*
X1000000000Y1000000000D03*
X1000000000Y1000000000D03*
X1000000000Y1000000000D03*
X1000000000Y1000000000D03*
X1000000000Y1000000000D03*
X1000000000Y1000000000D03*
X1000000000Y1000000000D03*
X1000000000Y1000000000D03*
X1000000000Y1000000000D03*
X1000000000Y1000000000D03*
X1000000000Y1000000000D03*
X1000000000Y1000000000D03*
X1000000000Y1000000000D03*
X1000000000Y1000000000D03*
X1000000000Y1000000000D03*
X1000000000Y1000000000D03*
X1000000000Y1000000000D03*
X1000000000Y1000000000D03*
X1000000000Y1000000000D03*
X1000000000Y1000000000D03*
X1000000000Y1000000000D03*
X1000000000Y1000000000D03*
X1000000000Y1000000000D03*
X1000000000Y1000000000D03*
X1000000000Y1000000000D03*
X1000000000Y1000000000D03*
X1000000000Y1000000000D03*
X1000000000Y1000000000D03*
X1000000000Y1000000000D03*
X1000000000Y1000000000D03*
X1000000000Y1000000000D03*
X1000000000Y1000000000D03*
X1000000000Y1000000000D03*
X1000000000Y1000000000D03*
X1000000000Y1000000000D03*
X1000000000Y1000000000D03*
X1000000000Y1000000000D03*
X1000000000Y1000000000D03*
X1000000000Y1000000000D03*
X1000000000Y1000000000D03*
X1000000000Y1000000000D03*
X1000000000Y1000000000D03*
X1000000000Y1000000000D03*
X1000000000Y1000000000D03*
X1000000000Y1000000000D03*
X1000000000Y1000000000D03*
X1000000000Y1000000000D03*
X1000000000Y1000000000D03*
X1000000000Y1000000000D03*
X1000000000Y1000000000D03*
X1000000000Y1000000000D03*
X1000000000Y1000000000D03*
X1000000000Y1000000000D03*
X1000000000Y1000000000D03*
X1000000000Y1000000000D03*
X1000000000Y1000000000D03*
X1000000000Y1000000000D03*
X1000000000Y1000000000D03*
X1000000000Y1000000000D03*
X1000000000Y1000000000D03*
X1000000000Y1000000000D03*
X1000000000Y1000000000D03*
X1000000000Y1000000000D03*
X1000000000Y1000000000D03*
X1000000000Y1000000000D03*
X1000000000Y1000000000D03*
X1000000000Y1000000000D03*
X1000000000Y1000000000D03*
X1000000000Y1000000000D03*
X1000000000Y1000000000D03*
X1000000000Y1000000000D03*
X1000000000Y1000000000D03*
X1000000000Y1000000000D03*
X1000000000Y1000000000D03*
X1000000000Y1000000000D03*
X1000000000Y1000000000D03*
X1000000000Y1000000000D03*
X1000000000Y1000000000D03*
X1000000000Y1000000000D03*
X1000000000Y1000000000D03*
X1000000000Y1000000000D03*
X1000000000Y1000000000D03*
X1000000000Y1000000000D03*
X1000000000Y1000000000D03*
X1000000000Y1000000000D03*
X1000000000Y1000000000D03*
X1000000000Y1000000000D03*
X1000000000Y1000000000D03*
X1000000000Y1000000000D03*
X1000000000Y1000000000D03*
X1000000000Y1000000000D03*
X1000000000Y1000000000D03*
X1000000000Y1000000000D03*
X1000000000Y1000000000D03*
X1000000000Y1000000000D03*
X1000000000Y1000000000D03*
X1000000000Y1000000000D03*
X1000000000Y1000000000D03*
X1000000000Y1000000000D03*
X1000000000Y1000000000D03*
X1000000000Y1000000000D03*
X1000000000Y1000000000D03*
X1000000000Y1000000000D03*
X1000000000Y1000000000D03*
X1000000000Y1000000000D03*
X1000000000Y1000000000D03*
X1000000000Y1000000000D03*
X1000000000Y1000000000D03*
X1000000000Y1000000000D03*
X1000000000Y1000000000D03*
X1000000000Y1000000000D03*
X1000000000Y1000000000D03*
X1000000000Y1000000000D03*
X1000000000Y1000000000D03*
X1000000000Y1000000000D03*
X1000000000Y1000000000D03*
X1000000000Y1000000000D03*
X1000000000Y1000000000D03*
X1000000000Y1000000000D03*
X1000000000Y1000000000D03*
X1000000000Y1000000000D03*
X1000000000Y1000000000D03*
X1000000000Y1000000000D03*
X1000000000Y1000000000D03*
X1000000000Y1000000000D03*
X1000000000Y1000000000D03*
X1000000000Y1000000000D03*
X1000000000Y1000000000D03*
X1000000000Y1000000000D03*
X1000000000Y1000000000D03*
X1000000000Y1000000000D03*
X1000000000Y1000000000D03*
X1000000000Y1000000000D03*
X1000000000Y1000000000D03*
X1000000000Y1000000000D03*
X1000000000Y1000000000D03*
X1000000000Y1000000000D03*
X1000000000Y1000000000D03*
X1000000000Y1000000000D03*
X1000000000Y1000000000D03*
X1000000000Y1000000000D03*
X1000000000Y1000000000D03*
X1000000000Y1000000000D03*
X1000000000Y1000000000D03*
X1000000000Y1000000000D03*
X1000000000Y1000000000D03*
X1000000000Y1000000000D03*
X1000000000Y1000000000D03*
X1000000000Y1000000000D03*
X1000000000Y1000000000D03*
X1000000000Y1000000000D03*
X1000000000Y1000000000D03*
X1000000000Y1000000000D03*
X1000000000Y1000000000D03*
X1000000000Y1000000000D03*
X1000000000Y1000000000D03*
X1000000000Y1000000000D03*
X1000000000Y1000000000D03*
X1000000000Y1000000000D03*
X1000000000Y1000000000D03*
X1000000000Y1000000000D03*
X1000000000Y1000000000D03*
X1000000000Y1000000000D03*
X1000000000Y1000000000D03*
X1000000000Y1000000000D03*
X1000000000Y1000000000D03*
X1000000000Y1000000000D03*
X1000000000Y1000000000D03*
X1000000000Y1000000000D03*
X1000000000Y1000000000D03*
X1000000000Y1000000000D03*
X1000000000Y1000000000D03*
X1000000000Y1000000000D03*
X1000000000Y1000000000D03*
X1000000000Y1000000000D03*
X1000000000Y1000000000D03*
X1000000000Y1000000000D03*
X1000000000Y1000000000D03*
X1000000000Y1000000000D03*
X1000000000Y1000000000D03*
X1000000000Y1000000000D03*
X1000000000Y1000000000D03*
X1000000000Y1000000000D03*
X1000000000Y1000000000D03*
X1000000000Y1000000000D03*
X1000000000Y1000000000D03*
X1000000000Y1000000000D03*
X1000000000Y1000000000D03*
X1000000000Y1000000000D03*
X1000000000Y1000000000D03*
X1000000000Y1000000000D03*
X1000000000Y1000000000D03*
X1000000000Y1000000000D03*
X1000000000Y1000000000D03*
X1000000000Y1000000000D03*
X1000000000Y1000000000D03*
X1000000000Y1000000000D03*
X1000000000Y1000000000D03*
X1000000000Y1000000000D03*
X1000000000Y1000000000D03*
X1000000000Y1000000000D03*
X1000000000Y1000000000D03*
X1000000000Y1000000000D03*
X1000000000Y1000000000D03*
X1000000000Y1000000000D03*
X1000000000Y1000000000D03*
X1000000000Y1000000000D03*
X1000000000Y1000000000D03*
X1000000000Y1000000000D03*
X1000000000Y1000000000D03*
X1000000000Y1000000000D03*
X1000000000Y1000000000D03*
X1000000000Y1000000000D03*
X1000000000Y1000000000D03*
X1000000000Y1000000000D03*
X1000000000Y1000000000D03*
X1000000000Y1000000000D03*
X1000000000Y1000000000D03*
X1000000000Y1000000000D03*
X1000000000Y1000000000D03*
X1000000000Y1000000000D03*
X1000000000Y1000000000D03*
X1000000000Y1000000000D03*
X1000000000Y1000000000D03*
X1000000000Y1000000000D03*
X1000000000Y1000000000D03*
X1000000000Y1000000000D03*
X1000000000Y1000000000D03*
X1000000000Y1000000000D03*
X1000000000Y1000000000D03*
X1000000000Y1000000000D03*
X1000000000Y1000000000D03*
X1000000000Y1000000000D03*
X1000000000Y1000000000D03*
X1000000000Y1000000000D03*
X1000000000Y1000000000D03*
X1000000000Y1000000000D03*
X1000000000Y1000000000D03*
X1000000000Y1000000000D03*
X1000000000Y1000000000D03*
X1000000000Y1000000000D03*
X1000000000Y1000000000D03*
X1000000000Y1000000000D03*
X1000000000Y1000000000D03*
X1000000000Y1000000000D03*
X1000000000Y1000000000D03*
X1000000000Y1000000000D03*
X1000000000Y1000000000D03*
X1000000000Y1000000000D03*
M02*
