G04 S2-B3 public deterministic 1000 circle selection fixture*
%FSLAX26Y26*%
%MOMM*%
%ADD10C,0.5*%
D10*
X1000000Y1000000D03*
X2000000Y1000000D03*
X3000000Y1000000D03*
X4000000Y1000000D03*
X5000000Y1000000D03*
X6000000Y1000000D03*
X7000000Y1000000D03*
X8000000Y1000000D03*
X9000000Y1000000D03*
X10000000Y1000000D03*
X11000000Y1000000D03*
X12000000Y1000000D03*
X13000000Y1000000D03*
X14000000Y1000000D03*
X15000000Y1000000D03*
X16000000Y1000000D03*
X17000000Y1000000D03*
X18000000Y1000000D03*
X19000000Y1000000D03*
X20000000Y1000000D03*
X21000000Y1000000D03*
X22000000Y1000000D03*
X23000000Y1000000D03*
X24000000Y1000000D03*
X25000000Y1000000D03*
X26000000Y1000000D03*
X27000000Y1000000D03*
X28000000Y1000000D03*
X29000000Y1000000D03*
X30000000Y1000000D03*
X31000000Y1000000D03*
X32000000Y1000000D03*
X33000000Y1000000D03*
X34000000Y1000000D03*
X35000000Y1000000D03*
X36000000Y1000000D03*
X37000000Y1000000D03*
X38000000Y1000000D03*
X39000000Y1000000D03*
X40000000Y1000000D03*
X1000000Y2000000D03*
X2000000Y2000000D03*
X3000000Y2000000D03*
X4000000Y2000000D03*
X5000000Y2000000D03*
X6000000Y2000000D03*
X7000000Y2000000D03*
X8000000Y2000000D03*
X9000000Y2000000D03*
X10000000Y2000000D03*
X11000000Y2000000D03*
X12000000Y2000000D03*
X13000000Y2000000D03*
X14000000Y2000000D03*
X15000000Y2000000D03*
X16000000Y2000000D03*
X17000000Y2000000D03*
X18000000Y2000000D03*
X19000000Y2000000D03*
X20000000Y2000000D03*
X21000000Y2000000D03*
X22000000Y2000000D03*
X23000000Y2000000D03*
X24000000Y2000000D03*
X25000000Y2000000D03*
X26000000Y2000000D03*
X27000000Y2000000D03*
X28000000Y2000000D03*
X29000000Y2000000D03*
X30000000Y2000000D03*
X31000000Y2000000D03*
X32000000Y2000000D03*
X33000000Y2000000D03*
X34000000Y2000000D03*
X35000000Y2000000D03*
X36000000Y2000000D03*
X37000000Y2000000D03*
X38000000Y2000000D03*
X39000000Y2000000D03*
X40000000Y2000000D03*
X1000000Y3000000D03*
X2000000Y3000000D03*
X3000000Y3000000D03*
X4000000Y3000000D03*
X5000000Y3000000D03*
X6000000Y3000000D03*
X7000000Y3000000D03*
X8000000Y3000000D03*
X9000000Y3000000D03*
X10000000Y3000000D03*
X11000000Y3000000D03*
X12000000Y3000000D03*
X13000000Y3000000D03*
X14000000Y3000000D03*
X15000000Y3000000D03*
X16000000Y3000000D03*
X17000000Y3000000D03*
X18000000Y3000000D03*
X19000000Y3000000D03*
X20000000Y3000000D03*
X21000000Y3000000D03*
X22000000Y3000000D03*
X23000000Y3000000D03*
X24000000Y3000000D03*
X25000000Y3000000D03*
X26000000Y3000000D03*
X27000000Y3000000D03*
X28000000Y3000000D03*
X29000000Y3000000D03*
X30000000Y3000000D03*
X31000000Y3000000D03*
X32000000Y3000000D03*
X33000000Y3000000D03*
X34000000Y3000000D03*
X35000000Y3000000D03*
X36000000Y3000000D03*
X37000000Y3000000D03*
X38000000Y3000000D03*
X39000000Y3000000D03*
X40000000Y3000000D03*
X1000000Y4000000D03*
X2000000Y4000000D03*
X3000000Y4000000D03*
X4000000Y4000000D03*
X5000000Y4000000D03*
X6000000Y4000000D03*
X7000000Y4000000D03*
X8000000Y4000000D03*
X9000000Y4000000D03*
X10000000Y4000000D03*
X11000000Y4000000D03*
X12000000Y4000000D03*
X13000000Y4000000D03*
X14000000Y4000000D03*
X15000000Y4000000D03*
X16000000Y4000000D03*
X17000000Y4000000D03*
X18000000Y4000000D03*
X19000000Y4000000D03*
X20000000Y4000000D03*
X21000000Y4000000D03*
X22000000Y4000000D03*
X23000000Y4000000D03*
X24000000Y4000000D03*
X25000000Y4000000D03*
X26000000Y4000000D03*
X27000000Y4000000D03*
X28000000Y4000000D03*
X29000000Y4000000D03*
X30000000Y4000000D03*
X31000000Y4000000D03*
X32000000Y4000000D03*
X33000000Y4000000D03*
X34000000Y4000000D03*
X35000000Y4000000D03*
X36000000Y4000000D03*
X37000000Y4000000D03*
X38000000Y4000000D03*
X39000000Y4000000D03*
X40000000Y4000000D03*
X1000000Y5000000D03*
X2000000Y5000000D03*
X3000000Y5000000D03*
X4000000Y5000000D03*
X5000000Y5000000D03*
X6000000Y5000000D03*
X7000000Y5000000D03*
X8000000Y5000000D03*
X9000000Y5000000D03*
X10000000Y5000000D03*
X11000000Y5000000D03*
X12000000Y5000000D03*
X13000000Y5000000D03*
X14000000Y5000000D03*
X15000000Y5000000D03*
X16000000Y5000000D03*
X17000000Y5000000D03*
X18000000Y5000000D03*
X19000000Y5000000D03*
X20000000Y5000000D03*
X21000000Y5000000D03*
X22000000Y5000000D03*
X23000000Y5000000D03*
X24000000Y5000000D03*
X25000000Y5000000D03*
X26000000Y5000000D03*
X27000000Y5000000D03*
X28000000Y5000000D03*
X29000000Y5000000D03*
X30000000Y5000000D03*
X31000000Y5000000D03*
X32000000Y5000000D03*
X33000000Y5000000D03*
X34000000Y5000000D03*
X35000000Y5000000D03*
X36000000Y5000000D03*
X37000000Y5000000D03*
X38000000Y5000000D03*
X39000000Y5000000D03*
X40000000Y5000000D03*
X1000000Y6000000D03*
X2000000Y6000000D03*
X3000000Y6000000D03*
X4000000Y6000000D03*
X5000000Y6000000D03*
X6000000Y6000000D03*
X7000000Y6000000D03*
X8000000Y6000000D03*
X9000000Y6000000D03*
X10000000Y6000000D03*
X11000000Y6000000D03*
X12000000Y6000000D03*
X13000000Y6000000D03*
X14000000Y6000000D03*
X15000000Y6000000D03*
X16000000Y6000000D03*
X17000000Y6000000D03*
X18000000Y6000000D03*
X19000000Y6000000D03*
X20000000Y6000000D03*
X21000000Y6000000D03*
X22000000Y6000000D03*
X23000000Y6000000D03*
X24000000Y6000000D03*
X25000000Y6000000D03*
X26000000Y6000000D03*
X27000000Y6000000D03*
X28000000Y6000000D03*
X29000000Y6000000D03*
X30000000Y6000000D03*
X31000000Y6000000D03*
X32000000Y6000000D03*
X33000000Y6000000D03*
X34000000Y6000000D03*
X35000000Y6000000D03*
X36000000Y6000000D03*
X37000000Y6000000D03*
X38000000Y6000000D03*
X39000000Y6000000D03*
X40000000Y6000000D03*
X1000000Y7000000D03*
X2000000Y7000000D03*
X3000000Y7000000D03*
X4000000Y7000000D03*
X5000000Y7000000D03*
X6000000Y7000000D03*
X7000000Y7000000D03*
X8000000Y7000000D03*
X9000000Y7000000D03*
X10000000Y7000000D03*
X11000000Y7000000D03*
X12000000Y7000000D03*
X13000000Y7000000D03*
X14000000Y7000000D03*
X15000000Y7000000D03*
X16000000Y7000000D03*
X17000000Y7000000D03*
X18000000Y7000000D03*
X19000000Y7000000D03*
X20000000Y7000000D03*
X21000000Y7000000D03*
X22000000Y7000000D03*
X23000000Y7000000D03*
X24000000Y7000000D03*
X25000000Y7000000D03*
X26000000Y7000000D03*
X27000000Y7000000D03*
X28000000Y7000000D03*
X29000000Y7000000D03*
X30000000Y7000000D03*
X31000000Y7000000D03*
X32000000Y7000000D03*
X33000000Y7000000D03*
X34000000Y7000000D03*
X35000000Y7000000D03*
X36000000Y7000000D03*
X37000000Y7000000D03*
X38000000Y7000000D03*
X39000000Y7000000D03*
X40000000Y7000000D03*
X1000000Y8000000D03*
X2000000Y8000000D03*
X3000000Y8000000D03*
X4000000Y8000000D03*
X5000000Y8000000D03*
X6000000Y8000000D03*
X7000000Y8000000D03*
X8000000Y8000000D03*
X9000000Y8000000D03*
X10000000Y8000000D03*
X11000000Y8000000D03*
X12000000Y8000000D03*
X13000000Y8000000D03*
X14000000Y8000000D03*
X15000000Y8000000D03*
X16000000Y8000000D03*
X17000000Y8000000D03*
X18000000Y8000000D03*
X19000000Y8000000D03*
X20000000Y8000000D03*
X21000000Y8000000D03*
X22000000Y8000000D03*
X23000000Y8000000D03*
X24000000Y8000000D03*
X25000000Y8000000D03*
X26000000Y8000000D03*
X27000000Y8000000D03*
X28000000Y8000000D03*
X29000000Y8000000D03*
X30000000Y8000000D03*
X31000000Y8000000D03*
X32000000Y8000000D03*
X33000000Y8000000D03*
X34000000Y8000000D03*
X35000000Y8000000D03*
X36000000Y8000000D03*
X37000000Y8000000D03*
X38000000Y8000000D03*
X39000000Y8000000D03*
X40000000Y8000000D03*
X1000000Y9000000D03*
X2000000Y9000000D03*
X3000000Y9000000D03*
X4000000Y9000000D03*
X5000000Y9000000D03*
X6000000Y9000000D03*
X7000000Y9000000D03*
X8000000Y9000000D03*
X9000000Y9000000D03*
X10000000Y9000000D03*
X11000000Y9000000D03*
X12000000Y9000000D03*
X13000000Y9000000D03*
X14000000Y9000000D03*
X15000000Y9000000D03*
X16000000Y9000000D03*
X17000000Y9000000D03*
X18000000Y9000000D03*
X19000000Y9000000D03*
X20000000Y9000000D03*
X21000000Y9000000D03*
X22000000Y9000000D03*
X23000000Y9000000D03*
X24000000Y9000000D03*
X25000000Y9000000D03*
X26000000Y9000000D03*
X27000000Y9000000D03*
X28000000Y9000000D03*
X29000000Y9000000D03*
X30000000Y9000000D03*
X31000000Y9000000D03*
X32000000Y9000000D03*
X33000000Y9000000D03*
X34000000Y9000000D03*
X35000000Y9000000D03*
X36000000Y9000000D03*
X37000000Y9000000D03*
X38000000Y9000000D03*
X39000000Y9000000D03*
X40000000Y9000000D03*
X1000000Y10000000D03*
X2000000Y10000000D03*
X3000000Y10000000D03*
X4000000Y10000000D03*
X5000000Y10000000D03*
X6000000Y10000000D03*
X7000000Y10000000D03*
X8000000Y10000000D03*
X9000000Y10000000D03*
X10000000Y10000000D03*
X11000000Y10000000D03*
X12000000Y10000000D03*
X13000000Y10000000D03*
X14000000Y10000000D03*
X15000000Y10000000D03*
X16000000Y10000000D03*
X17000000Y10000000D03*
X18000000Y10000000D03*
X19000000Y10000000D03*
X20000000Y10000000D03*
X21000000Y10000000D03*
X22000000Y10000000D03*
X23000000Y10000000D03*
X24000000Y10000000D03*
X25000000Y10000000D03*
X26000000Y10000000D03*
X27000000Y10000000D03*
X28000000Y10000000D03*
X29000000Y10000000D03*
X30000000Y10000000D03*
X31000000Y10000000D03*
X32000000Y10000000D03*
X33000000Y10000000D03*
X34000000Y10000000D03*
X35000000Y10000000D03*
X36000000Y10000000D03*
X37000000Y10000000D03*
X38000000Y10000000D03*
X39000000Y10000000D03*
X40000000Y10000000D03*
X1000000Y11000000D03*
X2000000Y11000000D03*
X3000000Y11000000D03*
X4000000Y11000000D03*
X5000000Y11000000D03*
X6000000Y11000000D03*
X7000000Y11000000D03*
X8000000Y11000000D03*
X9000000Y11000000D03*
X10000000Y11000000D03*
X11000000Y11000000D03*
X12000000Y11000000D03*
X13000000Y11000000D03*
X14000000Y11000000D03*
X15000000Y11000000D03*
X16000000Y11000000D03*
X17000000Y11000000D03*
X18000000Y11000000D03*
X19000000Y11000000D03*
X20000000Y11000000D03*
X21000000Y11000000D03*
X22000000Y11000000D03*
X23000000Y11000000D03*
X24000000Y11000000D03*
X25000000Y11000000D03*
X26000000Y11000000D03*
X27000000Y11000000D03*
X28000000Y11000000D03*
X29000000Y11000000D03*
X30000000Y11000000D03*
X31000000Y11000000D03*
X32000000Y11000000D03*
X33000000Y11000000D03*
X34000000Y11000000D03*
X35000000Y11000000D03*
X36000000Y11000000D03*
X37000000Y11000000D03*
X38000000Y11000000D03*
X39000000Y11000000D03*
X40000000Y11000000D03*
X1000000Y12000000D03*
X2000000Y12000000D03*
X3000000Y12000000D03*
X4000000Y12000000D03*
X5000000Y12000000D03*
X6000000Y12000000D03*
X7000000Y12000000D03*
X8000000Y12000000D03*
X9000000Y12000000D03*
X10000000Y12000000D03*
X11000000Y12000000D03*
X12000000Y12000000D03*
X13000000Y12000000D03*
X14000000Y12000000D03*
X15000000Y12000000D03*
X16000000Y12000000D03*
X17000000Y12000000D03*
X18000000Y12000000D03*
X19000000Y12000000D03*
X20000000Y12000000D03*
X21000000Y12000000D03*
X22000000Y12000000D03*
X23000000Y12000000D03*
X24000000Y12000000D03*
X25000000Y12000000D03*
X26000000Y12000000D03*
X27000000Y12000000D03*
X28000000Y12000000D03*
X29000000Y12000000D03*
X30000000Y12000000D03*
X31000000Y12000000D03*
X32000000Y12000000D03*
X33000000Y12000000D03*
X34000000Y12000000D03*
X35000000Y12000000D03*
X36000000Y12000000D03*
X37000000Y12000000D03*
X38000000Y12000000D03*
X39000000Y12000000D03*
X40000000Y12000000D03*
X1000000Y13000000D03*
X2000000Y13000000D03*
X3000000Y13000000D03*
X4000000Y13000000D03*
X5000000Y13000000D03*
X6000000Y13000000D03*
X7000000Y13000000D03*
X8000000Y13000000D03*
X9000000Y13000000D03*
X10000000Y13000000D03*
X11000000Y13000000D03*
X12000000Y13000000D03*
X13000000Y13000000D03*
X14000000Y13000000D03*
X15000000Y13000000D03*
X16000000Y13000000D03*
X17000000Y13000000D03*
X18000000Y13000000D03*
X19000000Y13000000D03*
X20000000Y13000000D03*
X21000000Y13000000D03*
X22000000Y13000000D03*
X23000000Y13000000D03*
X24000000Y13000000D03*
X25000000Y13000000D03*
X26000000Y13000000D03*
X27000000Y13000000D03*
X28000000Y13000000D03*
X29000000Y13000000D03*
X30000000Y13000000D03*
X31000000Y13000000D03*
X32000000Y13000000D03*
X33000000Y13000000D03*
X34000000Y13000000D03*
X35000000Y13000000D03*
X36000000Y13000000D03*
X37000000Y13000000D03*
X38000000Y13000000D03*
X39000000Y13000000D03*
X40000000Y13000000D03*
X1000000Y14000000D03*
X2000000Y14000000D03*
X3000000Y14000000D03*
X4000000Y14000000D03*
X5000000Y14000000D03*
X6000000Y14000000D03*
X7000000Y14000000D03*
X8000000Y14000000D03*
X9000000Y14000000D03*
X10000000Y14000000D03*
X11000000Y14000000D03*
X12000000Y14000000D03*
X13000000Y14000000D03*
X14000000Y14000000D03*
X15000000Y14000000D03*
X16000000Y14000000D03*
X17000000Y14000000D03*
X18000000Y14000000D03*
X19000000Y14000000D03*
X20000000Y14000000D03*
X21000000Y14000000D03*
X22000000Y14000000D03*
X23000000Y14000000D03*
X24000000Y14000000D03*
X25000000Y14000000D03*
X26000000Y14000000D03*
X27000000Y14000000D03*
X28000000Y14000000D03*
X29000000Y14000000D03*
X30000000Y14000000D03*
X31000000Y14000000D03*
X32000000Y14000000D03*
X33000000Y14000000D03*
X34000000Y14000000D03*
X35000000Y14000000D03*
X36000000Y14000000D03*
X37000000Y14000000D03*
X38000000Y14000000D03*
X39000000Y14000000D03*
X40000000Y14000000D03*
X1000000Y15000000D03*
X2000000Y15000000D03*
X3000000Y15000000D03*
X4000000Y15000000D03*
X5000000Y15000000D03*
X6000000Y15000000D03*
X7000000Y15000000D03*
X8000000Y15000000D03*
X9000000Y15000000D03*
X10000000Y15000000D03*
X11000000Y15000000D03*
X12000000Y15000000D03*
X13000000Y15000000D03*
X14000000Y15000000D03*
X15000000Y15000000D03*
X16000000Y15000000D03*
X17000000Y15000000D03*
X18000000Y15000000D03*
X19000000Y15000000D03*
X20000000Y15000000D03*
X21000000Y15000000D03*
X22000000Y15000000D03*
X23000000Y15000000D03*
X24000000Y15000000D03*
X25000000Y15000000D03*
X26000000Y15000000D03*
X27000000Y15000000D03*
X28000000Y15000000D03*
X29000000Y15000000D03*
X30000000Y15000000D03*
X31000000Y15000000D03*
X32000000Y15000000D03*
X33000000Y15000000D03*
X34000000Y15000000D03*
X35000000Y15000000D03*
X36000000Y15000000D03*
X37000000Y15000000D03*
X38000000Y15000000D03*
X39000000Y15000000D03*
X40000000Y15000000D03*
X1000000Y16000000D03*
X2000000Y16000000D03*
X3000000Y16000000D03*
X4000000Y16000000D03*
X5000000Y16000000D03*
X6000000Y16000000D03*
X7000000Y16000000D03*
X8000000Y16000000D03*
X9000000Y16000000D03*
X10000000Y16000000D03*
X11000000Y16000000D03*
X12000000Y16000000D03*
X13000000Y16000000D03*
X14000000Y16000000D03*
X15000000Y16000000D03*
X16000000Y16000000D03*
X17000000Y16000000D03*
X18000000Y16000000D03*
X19000000Y16000000D03*
X20000000Y16000000D03*
X21000000Y16000000D03*
X22000000Y16000000D03*
X23000000Y16000000D03*
X24000000Y16000000D03*
X25000000Y16000000D03*
X26000000Y16000000D03*
X27000000Y16000000D03*
X28000000Y16000000D03*
X29000000Y16000000D03*
X30000000Y16000000D03*
X31000000Y16000000D03*
X32000000Y16000000D03*
X33000000Y16000000D03*
X34000000Y16000000D03*
X35000000Y16000000D03*
X36000000Y16000000D03*
X37000000Y16000000D03*
X38000000Y16000000D03*
X39000000Y16000000D03*
X40000000Y16000000D03*
X1000000Y17000000D03*
X2000000Y17000000D03*
X3000000Y17000000D03*
X4000000Y17000000D03*
X5000000Y17000000D03*
X6000000Y17000000D03*
X7000000Y17000000D03*
X8000000Y17000000D03*
X9000000Y17000000D03*
X10000000Y17000000D03*
X11000000Y17000000D03*
X12000000Y17000000D03*
X13000000Y17000000D03*
X14000000Y17000000D03*
X15000000Y17000000D03*
X16000000Y17000000D03*
X17000000Y17000000D03*
X18000000Y17000000D03*
X19000000Y17000000D03*
X20000000Y17000000D03*
X21000000Y17000000D03*
X22000000Y17000000D03*
X23000000Y17000000D03*
X24000000Y17000000D03*
X25000000Y17000000D03*
X26000000Y17000000D03*
X27000000Y17000000D03*
X28000000Y17000000D03*
X29000000Y17000000D03*
X30000000Y17000000D03*
X31000000Y17000000D03*
X32000000Y17000000D03*
X33000000Y17000000D03*
X34000000Y17000000D03*
X35000000Y17000000D03*
X36000000Y17000000D03*
X37000000Y17000000D03*
X38000000Y17000000D03*
X39000000Y17000000D03*
X40000000Y17000000D03*
X1000000Y18000000D03*
X2000000Y18000000D03*
X3000000Y18000000D03*
X4000000Y18000000D03*
X5000000Y18000000D03*
X6000000Y18000000D03*
X7000000Y18000000D03*
X8000000Y18000000D03*
X9000000Y18000000D03*
X10000000Y18000000D03*
X11000000Y18000000D03*
X12000000Y18000000D03*
X13000000Y18000000D03*
X14000000Y18000000D03*
X15000000Y18000000D03*
X16000000Y18000000D03*
X17000000Y18000000D03*
X18000000Y18000000D03*
X19000000Y18000000D03*
X20000000Y18000000D03*
X21000000Y18000000D03*
X22000000Y18000000D03*
X23000000Y18000000D03*
X24000000Y18000000D03*
X25000000Y18000000D03*
X26000000Y18000000D03*
X27000000Y18000000D03*
X28000000Y18000000D03*
X29000000Y18000000D03*
X30000000Y18000000D03*
X31000000Y18000000D03*
X32000000Y18000000D03*
X33000000Y18000000D03*
X34000000Y18000000D03*
X35000000Y18000000D03*
X36000000Y18000000D03*
X37000000Y18000000D03*
X38000000Y18000000D03*
X39000000Y18000000D03*
X40000000Y18000000D03*
X1000000Y19000000D03*
X2000000Y19000000D03*
X3000000Y19000000D03*
X4000000Y19000000D03*
X5000000Y19000000D03*
X6000000Y19000000D03*
X7000000Y19000000D03*
X8000000Y19000000D03*
X9000000Y19000000D03*
X10000000Y19000000D03*
X11000000Y19000000D03*
X12000000Y19000000D03*
X13000000Y19000000D03*
X14000000Y19000000D03*
X15000000Y19000000D03*
X16000000Y19000000D03*
X17000000Y19000000D03*
X18000000Y19000000D03*
X19000000Y19000000D03*
X20000000Y19000000D03*
X21000000Y19000000D03*
X22000000Y19000000D03*
X23000000Y19000000D03*
X24000000Y19000000D03*
X25000000Y19000000D03*
X26000000Y19000000D03*
X27000000Y19000000D03*
X28000000Y19000000D03*
X29000000Y19000000D03*
X30000000Y19000000D03*
X31000000Y19000000D03*
X32000000Y19000000D03*
X33000000Y19000000D03*
X34000000Y19000000D03*
X35000000Y19000000D03*
X36000000Y19000000D03*
X37000000Y19000000D03*
X38000000Y19000000D03*
X39000000Y19000000D03*
X40000000Y19000000D03*
X1000000Y20000000D03*
X2000000Y20000000D03*
X3000000Y20000000D03*
X4000000Y20000000D03*
X5000000Y20000000D03*
X6000000Y20000000D03*
X7000000Y20000000D03*
X8000000Y20000000D03*
X9000000Y20000000D03*
X10000000Y20000000D03*
X11000000Y20000000D03*
X12000000Y20000000D03*
X13000000Y20000000D03*
X14000000Y20000000D03*
X15000000Y20000000D03*
X16000000Y20000000D03*
X17000000Y20000000D03*
X18000000Y20000000D03*
X19000000Y20000000D03*
X20000000Y20000000D03*
X21000000Y20000000D03*
X22000000Y20000000D03*
X23000000Y20000000D03*
X24000000Y20000000D03*
X25000000Y20000000D03*
X26000000Y20000000D03*
X27000000Y20000000D03*
X28000000Y20000000D03*
X29000000Y20000000D03*
X30000000Y20000000D03*
X31000000Y20000000D03*
X32000000Y20000000D03*
X33000000Y20000000D03*
X34000000Y20000000D03*
X35000000Y20000000D03*
X36000000Y20000000D03*
X37000000Y20000000D03*
X38000000Y20000000D03*
X39000000Y20000000D03*
X40000000Y20000000D03*
X1000000Y21000000D03*
X2000000Y21000000D03*
X3000000Y21000000D03*
X4000000Y21000000D03*
X5000000Y21000000D03*
X6000000Y21000000D03*
X7000000Y21000000D03*
X8000000Y21000000D03*
X9000000Y21000000D03*
X10000000Y21000000D03*
X11000000Y21000000D03*
X12000000Y21000000D03*
X13000000Y21000000D03*
X14000000Y21000000D03*
X15000000Y21000000D03*
X16000000Y21000000D03*
X17000000Y21000000D03*
X18000000Y21000000D03*
X19000000Y21000000D03*
X20000000Y21000000D03*
X21000000Y21000000D03*
X22000000Y21000000D03*
X23000000Y21000000D03*
X24000000Y21000000D03*
X25000000Y21000000D03*
X26000000Y21000000D03*
X27000000Y21000000D03*
X28000000Y21000000D03*
X29000000Y21000000D03*
X30000000Y21000000D03*
X31000000Y21000000D03*
X32000000Y21000000D03*
X33000000Y21000000D03*
X34000000Y21000000D03*
X35000000Y21000000D03*
X36000000Y21000000D03*
X37000000Y21000000D03*
X38000000Y21000000D03*
X39000000Y21000000D03*
X40000000Y21000000D03*
X1000000Y22000000D03*
X2000000Y22000000D03*
X3000000Y22000000D03*
X4000000Y22000000D03*
X5000000Y22000000D03*
X6000000Y22000000D03*
X7000000Y22000000D03*
X8000000Y22000000D03*
X9000000Y22000000D03*
X10000000Y22000000D03*
X11000000Y22000000D03*
X12000000Y22000000D03*
X13000000Y22000000D03*
X14000000Y22000000D03*
X15000000Y22000000D03*
X16000000Y22000000D03*
X17000000Y22000000D03*
X18000000Y22000000D03*
X19000000Y22000000D03*
X20000000Y22000000D03*
X21000000Y22000000D03*
X22000000Y22000000D03*
X23000000Y22000000D03*
X24000000Y22000000D03*
X25000000Y22000000D03*
X26000000Y22000000D03*
X27000000Y22000000D03*
X28000000Y22000000D03*
X29000000Y22000000D03*
X30000000Y22000000D03*
X31000000Y22000000D03*
X32000000Y22000000D03*
X33000000Y22000000D03*
X34000000Y22000000D03*
X35000000Y22000000D03*
X36000000Y22000000D03*
X37000000Y22000000D03*
X38000000Y22000000D03*
X39000000Y22000000D03*
X40000000Y22000000D03*
X1000000Y23000000D03*
X2000000Y23000000D03*
X3000000Y23000000D03*
X4000000Y23000000D03*
X5000000Y23000000D03*
X6000000Y23000000D03*
X7000000Y23000000D03*
X8000000Y23000000D03*
X9000000Y23000000D03*
X10000000Y23000000D03*
X11000000Y23000000D03*
X12000000Y23000000D03*
X13000000Y23000000D03*
X14000000Y23000000D03*
X15000000Y23000000D03*
X16000000Y23000000D03*
X17000000Y23000000D03*
X18000000Y23000000D03*
X19000000Y23000000D03*
X20000000Y23000000D03*
X21000000Y23000000D03*
X22000000Y23000000D03*
X23000000Y23000000D03*
X24000000Y23000000D03*
X25000000Y23000000D03*
X26000000Y23000000D03*
X27000000Y23000000D03*
X28000000Y23000000D03*
X29000000Y23000000D03*
X30000000Y23000000D03*
X31000000Y23000000D03*
X32000000Y23000000D03*
X33000000Y23000000D03*
X34000000Y23000000D03*
X35000000Y23000000D03*
X36000000Y23000000D03*
X37000000Y23000000D03*
X38000000Y23000000D03*
X39000000Y23000000D03*
X40000000Y23000000D03*
X1000000Y24000000D03*
X2000000Y24000000D03*
X3000000Y24000000D03*
X4000000Y24000000D03*
X5000000Y24000000D03*
X6000000Y24000000D03*
X7000000Y24000000D03*
X8000000Y24000000D03*
X9000000Y24000000D03*
X10000000Y24000000D03*
X11000000Y24000000D03*
X12000000Y24000000D03*
X13000000Y24000000D03*
X14000000Y24000000D03*
X15000000Y24000000D03*
X16000000Y24000000D03*
X17000000Y24000000D03*
X18000000Y24000000D03*
X19000000Y24000000D03*
X20000000Y24000000D03*
X21000000Y24000000D03*
X22000000Y24000000D03*
X23000000Y24000000D03*
X24000000Y24000000D03*
X25000000Y24000000D03*
X26000000Y24000000D03*
X27000000Y24000000D03*
X28000000Y24000000D03*
X29000000Y24000000D03*
X30000000Y24000000D03*
X31000000Y24000000D03*
X32000000Y24000000D03*
X33000000Y24000000D03*
X34000000Y24000000D03*
X35000000Y24000000D03*
X36000000Y24000000D03*
X37000000Y24000000D03*
X38000000Y24000000D03*
X39000000Y24000000D03*
X40000000Y24000000D03*
X1000000Y25000000D03*
X2000000Y25000000D03*
X3000000Y25000000D03*
X4000000Y25000000D03*
X5000000Y25000000D03*
X6000000Y25000000D03*
X7000000Y25000000D03*
X8000000Y25000000D03*
X9000000Y25000000D03*
X10000000Y25000000D03*
X11000000Y25000000D03*
X12000000Y25000000D03*
X13000000Y25000000D03*
X14000000Y25000000D03*
X15000000Y25000000D03*
X16000000Y25000000D03*
X17000000Y25000000D03*
X18000000Y25000000D03*
X19000000Y25000000D03*
X20000000Y25000000D03*
X21000000Y25000000D03*
X22000000Y25000000D03*
X23000000Y25000000D03*
X24000000Y25000000D03*
X25000000Y25000000D03*
X26000000Y25000000D03*
X27000000Y25000000D03*
X28000000Y25000000D03*
X29000000Y25000000D03*
X30000000Y25000000D03*
X31000000Y25000000D03*
X32000000Y25000000D03*
X33000000Y25000000D03*
X34000000Y25000000D03*
X35000000Y25000000D03*
X36000000Y25000000D03*
X37000000Y25000000D03*
X38000000Y25000000D03*
X39000000Y25000000D03*
X40000000Y25000000D03*
M02*
